
<svg width="32" height="32" viewBox="0 0 32 32" fill="none" xmlns="http://www.w3.org/2000/svg">
<g clip-path="url(#clip0)">
<path d="M29.328 2.255H2.256C1.01 2.255 0 3.264 0 4.51V27.074C0 28.319 1.01 29.33 2.256 29.33H29.328C30.572 29.33 31.586 28.318 31.586 27.074V4.51C31.586 3.264 30.572 2.255 29.328 2.255ZM7.333 3.949C7.955 3.949 8.461 4.451 8.461 5.077C8.461 5.70001 7.955 6.202 7.333 6.202C6.707 6.202 6.202 5.70001 6.202 5.077C6.202 4.451 6.707 3.949 7.333 3.949ZM3.947 3.949C4.57 3.949 5.074 4.451 5.074 5.077C5.074 5.70001 4.57 6.202 3.947 6.202C3.323 6.202 2.818 5.70001 2.818 5.077C2.818 4.451 3.323 3.949 3.947 3.949ZM29.328 27.075H2.256V7.92H29.328V27.075Z"/>
<path d="M12.645 12.556L5.39999 9.24298V10.84L11.003 13.235V13.266L5.39999 15.66V17.256L12.645 13.943V12.556Z"/>
<path d="M20.002 12.488H16.056V14.01H20.002V12.488Z"/>
</g>
<defs>
<clipPath id="clip0">
<rect width="31.586" height="31.586"/>
</clipPath>
</defs>
</svg>